<?xml version="1.0" encoding="UTF-8" standalone="no"?>
<!DOCTYPE svg PUBLIC "-//W3C//DTD SVG 1.1//EN" "http://www.w3.org/Graphics/SVG/1.1/DTD/svg11.dtd">
<svg width="100%" height="100%" viewBox="0 0 2000 2000" version="1.1" xmlns="http://www.w3.org/2000/svg" xmlns:xlink="http://www.w3.org/1999/xlink" xml:space="preserve" xmlns:serif="http://www.serif.com/" style="fill-rule:evenodd;clip-rule:evenodd;stroke-linejoin:round;stroke-miterlimit:2;">
    <g transform="matrix(27.428021,0,0,27.428021,-12207.132454,-14116.502946)">
        <path d="M489.708,562.517C489.643,563.738 489.074,564.714 487.999,565.447C487.023,566.098 485.892,566.423 484.606,566.423L475.207,566.423C473.921,566.423 472.944,566.082 472.277,565.398C471.837,564.959 471.284,563.998 470.617,562.517L465.807,551.873C466.409,551.759 467.801,551.295 469.982,550.481C472.098,549.7 473.424,549.163 473.961,548.87C477.2,547.193 478.82,545.094 478.82,542.571C478.82,539.674 476.769,538.225 472.667,538.225L447.765,538.225L451.574,532.073L476.159,532.073C484.997,532.073 489.416,534.889 489.416,540.52C489.416,545.289 484.818,549.456 475.622,553.02L480.016,562.517L489.708,562.517ZM469.274,541.375L460.363,566.423L451.574,566.423L460.412,541.375L469.274,541.375Z" style="fill-rule:nonzero;"/>
    </g>
    <g transform="matrix(28.170382,0,0,28.170382,-21194.28856,-31948.341363)">
        <path d="M820.724,1156.959C820.724,1158.652 820.049,1160.06 818.698,1161.183C817.428,1162.257 815.931,1162.794 814.206,1162.794C812.497,1162.794 810.999,1162.257 809.713,1161.183C808.379,1160.06 807.711,1158.652 807.711,1156.959C807.711,1156.438 807.793,1155.869 807.956,1155.25L807.711,1156.959C803.789,1156.959 798.941,1159.002 795.832,1162.55C792.821,1165.968 792.355,1167.685 792.355,1171.656C792.355,1174.993 793.6,1177.524 796.09,1179.249C798.239,1180.746 801.48,1180.487 804.979,1180.487L809.103,1168.8L818.209,1168.8C816.875,1172.657 814.857,1178.427 812.155,1186.109C810.869,1189.739 807.793,1191.554 802.926,1191.554C802.357,1191.554 801.706,1191.537 800.973,1191.505L803.525,1184.496C797.861,1184.496 792.524,1184.471 788.653,1184.496C783.308,1184.531 782.101,1177.076 782.101,1172.096C782.101,1169.329 782.956,1166.513 784.664,1163.648C787.057,1159.628 790.508,1156.487 795.016,1154.225C799.264,1152.109 803.846,1151.051 808.761,1151.051L814.206,1151.051C815.898,1151.051 817.387,1151.612 818.673,1152.735C820.04,1153.891 820.724,1155.299 820.724,1156.959Z" style="fill-rule:nonzero;"/>
    </g>
</svg>
